<?xml version="1.0" encoding="UTF-8"?>
<!DOCTYPE svg  PUBLIC '-//W3C//DTD SVG 1.1//EN'  'http://www.w3.org/Graphics/SVG/1.1/DTD/svg11.dtd'>
<svg clip-rule="evenodd" fill-rule="evenodd" stroke-linejoin="round" stroke-miterlimit="1.4142" version="1.1" viewBox="0 0 230 215" xml:space="preserve" xmlns="http://www.w3.org/2000/svg">
    <g transform="matrix(5.9532 0 0 5.9532 34.792 128.42)">
        <clipPath id="a">
            <rect x="-5.844" y="-24.731" width="38.61" height="39.159"/>
        </clipPath>
        <g clip-path="url(#a)">
            <path d="m0-7.144c0-1.028 0.449-1.686 0.962-2.091s11.198-8.707 11.497-8.943c0.299-0.237 0.555-0.339 0.807-0.339 0.244 0 0.507 0.102 0.807 0.339 0.299 0.236 10.973 8.538 11.487 8.943 0.512 0.405 0.961 1.063 0.961 2.091v17.719c0 0.847-0.435 1.435-1.317 1.435h-11.938-11.948c-0.883 0-1.318-0.588-1.318-1.435v-17.719zm32.374 0.353c-0.166-0.131-4.257-3.392-4.257-3.392v-5.988c0-0.443-0.175-0.569-0.489-0.569h-2.681c-0.363 0-0.583 0.071-0.583 0.569v3.045h-1e-3c-4.79-3.789-9.985-7.898-10.182-8.054-0.393-0.311-0.636-0.392-0.915-0.392-0.277 0-0.522 0.081-0.915 0.392s-17.67 13.975-18.193 14.389c-0.637 0.503-0.458 1.23 0.252 1.23h3.373v18.331c0 0.83 0.25 1.294 0.776 1.508 0.225 0.092 0.486 0.15 0.823 0.15h27.768c0.337 0 0.598-0.058 0.823-0.15 0.526-0.214 0.776-0.678 0.776-1.508v-18.331h3.373c0.71 0 0.889-0.727 0.252-1.23" fill-rule="nonzero"/>
        </g>
    </g>
    <g transform="matrix(5.9532 0 0 5.9532 71.892 123.52)">
        <path d="m0-4.001c0-0.434 0-0.777 0.47-1.155 0.31-0.249 5.875-4.647 6.042-4.778 0.166-0.131 0.33-0.201 0.514-0.201 0.174 0 0.347 0.07 0.514 0.201s5.731 4.529 6.041 4.778c0.471 0.378 0.471 0.721 0.471 1.155v9.701c0 0.616-0.343 0.856-0.811 0.856h-6.215-6.215c-0.469 0-0.811-0.24-0.811-0.856v-9.701zm-1.289 12.951h16.629c0.603 0 1.013-0.338 1.013-1.063v-12.724c0-0.704-0.166-1.109-0.665-1.506-0.282-0.223-7.847-6.206-8.049-6.365-0.202-0.16-0.419-0.243-0.613-0.243-0.196 0-0.411 0.083-0.614 0.243-0.202 0.159-7.767 6.142-8.049 6.365-0.499 0.397-0.664 0.802-0.664 1.506v12.724c0 0.725 0.409 1.063 1.012 1.063" fill-rule="nonzero"/>
    </g>
    <g transform="matrix(5.9532 0 0 5.9532 104.29 118.92)">
        <path d="m0-0.915c0-0.12 0.05-0.244 0.156-0.33 0.056-0.046 1.248-0.982 1.291-1.015 0.042-0.034 0.106-0.052 0.144-0.052s0.102 0.018 0.145 0.052c0.042 0.033 1.235 0.969 1.29 1.015 0.106 0.086 0.156 0.21 0.156 0.33v2.572c0 0.182-0.091 0.223-0.219 0.223h-1.372-1.372c-0.128 0-0.219-0.041-0.219-0.223v-2.572zm-1.782 5.132h6.744c0.308 0 0.527-0.099 0.527-0.537v-5.445c0-0.29-0.121-0.588-0.375-0.795-0.135-0.11-3.074-2.363-3.177-2.445-0.104-0.081-0.256-0.127-0.348-0.127s-0.245 0.046-0.348 0.127c-0.103 0.082-3.039 2.335-3.175 2.445-0.254 0.207-0.374 0.505-0.374 0.795v5.445c0 0.438 0.219 0.537 0.526 0.537" fill-rule="nonzero"/>
    </g>
</svg>
